<svg width="58" height="58" viewBox="0 0 58 58" fill="none" xmlns="http://www.w3.org/2000/svg">
<path d="M41.0521 52.2761C34.6719 52.2761 29.4739 47.0834 29.4739 40.6979C29.4739 34.3125 34.6719 29.1198 41.0521 29.1198C47.4375 29.1198 52.6302 34.3125 52.6302 40.6979C52.6302 47.0834 47.4375 52.2761 41.0521 52.2761ZM41.0521 30.9011C35.651 30.9011 31.2552 35.2969 31.2552 40.6979C31.2552 46.099 35.651 50.4948 41.0521 50.4948C46.4583 50.4948 50.8489 46.099 50.8489 40.6979C50.8489 35.2969 46.4583 30.9011 41.0521 30.9011Z" fill="black"/>
<mask id="mask0_291_8357" style="mask-type:luminance" maskUnits="userSpaceOnUse" x="9" y="0" width="38" height="41">
<path d="M9 0.619781H46.3333V40.3333H9V0.619781Z" fill="white"/>
</mask>
<g mask="url(#mask0_291_8357)">
<path d="M10.7708 39.8073C10.2812 39.8073 9.88019 39.4062 9.88019 38.9167V3.29166C9.88019 1.8177 11.0781 0.619781 12.5521 0.619781H42.8333C44.3073 0.619781 45.5052 1.8177 45.5052 3.29166V30.3958C45.5052 30.8854 45.1094 31.2864 44.6146 31.2864C44.125 31.2864 43.7239 30.8854 43.7239 30.3958V3.29166C43.7239 2.80207 43.3281 2.40103 42.8333 2.40103H12.5521C12.0625 2.40103 11.6614 2.80207 11.6614 3.29166V38.9167C11.6614 39.4062 11.2656 39.8073 10.7708 39.8073Z" fill="black"/>
</g>
<path d="M32.4166 48.7136H6.31769C5.82811 48.7136 5.42706 48.3177 5.42706 47.8229C5.42706 47.3334 5.82811 46.9323 6.31769 46.9323H32.4166C32.9114 46.9323 33.3073 47.3334 33.3073 47.8229C33.3073 48.3177 32.9114 48.7136 32.4166 48.7136Z" fill="black"/>
<mask id="mask1_291_8357" style="mask-type:luminance" maskUnits="userSpaceOnUse" x="47" y="47" width="11" height="11">
<path d="M47.6667 47H57.974V57.6198H47.6667V47Z" fill="white"/>
</mask>
<g mask="url(#mask1_291_8357)">
<path d="M57.0833 57.6198C56.8594 57.6198 56.6302 57.5312 56.4531 57.3594L48.1719 49.0781C47.8229 48.7291 47.8229 48.1666 48.1719 47.8177C48.5208 47.4687 49.0833 47.4687 49.4323 47.8177L57.7135 56.0989C58.0625 56.4479 58.0625 57.0156 57.7135 57.3594C57.5417 57.5312 57.3125 57.6198 57.0833 57.6198Z" fill="black"/>
</g>
<mask id="mask2_291_8357" style="mask-type:luminance" maskUnits="userSpaceOnUse" x="0" y="37" width="12" height="13">
<path d="M0.973938 37.6667H11.6666V49.6667H0.973938V37.6667Z" fill="white"/>
</mask>
<g mask="url(#mask2_291_8357)">
<path d="M10.7708 38.0261H3.64581C2.17185 38.0261 0.973938 39.224 0.973938 40.6979V43.3698C0.973938 46.3177 3.37498 48.7136 6.31769 48.7136C9.26561 48.7136 11.6614 46.3177 11.6614 43.3698V38.9167C11.6614 38.4271 11.2656 38.0261 10.7708 38.0261Z" fill="black"/>
</g>
<path d="M24.1302 9.52606C24.1302 10 24.0416 10.4531 23.8594 10.8906C23.6823 11.3281 23.4219 11.7136 23.0885 12.0469C22.7552 12.3802 22.3698 12.6354 21.9323 12.8177C21.4948 13 21.0416 13.0886 20.5677 13.0886C20.0989 13.0886 19.6406 13 19.2083 12.8177C18.7708 12.6354 18.3854 12.3802 18.0521 12.0469C17.7135 11.7136 17.4583 11.3281 17.276 10.8906C17.0989 10.4531 17.0052 10 17.0052 9.52606C17.0052 9.05731 17.0989 8.59898 17.276 8.16148C17.4583 7.72919 17.7135 7.34377 18.0521 7.01044C18.3854 6.6719 18.7708 6.41669 19.2083 6.2344C19.6406 6.05731 20.0989 5.96356 20.5677 5.96356C21.0416 5.96356 21.4948 6.05731 21.9323 6.2344C22.3698 6.41669 22.7552 6.6719 23.0885 7.01044C23.4219 7.34377 23.6823 7.72919 23.8594 8.16148C24.0416 8.59898 24.1302 9.05731 24.1302 9.52606Z" fill="black"/>
<path d="M25.8177 18.9271L24.5313 16.349C24.0729 15.4375 23.1615 14.8698 22.1406 14.8698H19C17.9792 14.8698 17.0625 15.4375 16.6094 16.349L15.3177 18.9271C15.1511 19.2604 15.2136 19.6667 15.4688 19.9375C16.6927 21.224 18.599 21.9948 20.5677 21.9948C22.5365 21.9948 24.4427 21.224 25.6667 19.9375C25.9271 19.6667 25.9896 19.2604 25.8177 18.9271Z" fill="black"/>
<path d="M35.7083 9.52606H28.5833C28.0937 9.52606 27.6927 9.13023 27.6927 8.63544C27.6927 8.14585 28.0937 7.74481 28.5833 7.74481H35.7083C36.2031 7.74481 36.5989 8.14585 36.5989 8.63544C36.5989 9.13023 36.2031 9.52606 35.7083 9.52606Z" fill="black"/>
<path d="M39.2708 14.8698H28.5833C28.0937 14.8698 27.6927 14.474 27.6927 13.9792C27.6927 13.4896 28.0937 13.0886 28.5833 13.0886H39.2708C39.7656 13.0886 40.1614 13.4896 40.1614 13.9792C40.1614 14.474 39.7656 14.8698 39.2708 14.8698Z" fill="black"/>
<path d="M39.2708 20.2136H28.5833C28.0937 20.2136 27.6927 19.8177 27.6927 19.3229C27.6927 18.8334 28.0937 18.4323 28.5833 18.4323H39.2708C39.7656 18.4323 40.1614 18.8334 40.1614 19.3229C40.1614 19.8177 39.7656 20.2136 39.2708 20.2136Z" fill="black"/>
<path d="M32.1458 27.3386H16.1146C15.625 27.3386 15.2239 26.9427 15.2239 26.4479C15.2239 25.9584 15.625 25.5573 16.1146 25.5573H32.1458C32.6406 25.5573 33.0364 25.9584 33.0364 26.4479C33.0364 26.9427 32.6406 27.3386 32.1458 27.3386Z" fill="black"/>
<path d="M25.0208 32.6823H16.1146C15.625 32.6823 15.2239 32.2865 15.2239 31.7917C15.2239 31.3021 15.625 30.9011 16.1146 30.9011H25.0208C25.5156 30.9011 25.9114 31.3021 25.9114 31.7917C25.9114 32.2865 25.5156 32.6823 25.0208 32.6823Z" fill="black"/>
<path d="M23.2396 38.0261H16.1146C15.625 38.0261 15.2239 37.6302 15.2239 37.1354C15.2239 36.6459 15.625 36.2448 16.1146 36.2448H23.2396C23.7344 36.2448 24.1302 36.6459 24.1302 37.1354C24.1302 37.6302 23.7344 38.0261 23.2396 38.0261Z" fill="black"/>
<path d="M41.0521 43.3698C40.5625 43.3698 40.1614 42.974 40.1614 42.4792V40.6979C40.1614 40.2084 40.5625 39.8073 41.0521 39.8073H41.9427C42.9271 39.8073 43.7239 39.0104 43.7239 38.0261C43.7239 37.0417 42.9271 36.2448 41.9427 36.2448H40.1614C39.1823 36.2448 38.3802 37.0417 38.3802 38.0261C38.3802 38.5209 37.9844 38.9167 37.4896 38.9167C37 38.9167 36.5989 38.5209 36.5989 38.0261C36.5989 36.0625 38.1979 34.4636 40.1614 34.4636H41.9427C43.9114 34.4636 45.5052 36.0625 45.5052 38.0261C45.5052 39.9896 43.9114 41.5886 41.9427 41.5886V42.4792C41.9427 42.974 41.5469 43.3698 41.0521 43.3698Z" fill="black"/>
<path d="M41.9427 46.0417C41.9427 46.2865 41.8594 46.5 41.6823 46.6719C41.5104 46.849 41.3021 46.9323 41.0521 46.9323C40.8073 46.9323 40.5989 46.849 40.4219 46.6719C40.25 46.5 40.1614 46.2865 40.1614 46.0417C40.1614 45.7969 40.25 45.5886 40.4219 45.4115C40.5989 45.2396 40.8073 45.1511 41.0521 45.1511C41.3021 45.1511 41.5104 45.2396 41.6823 45.4115C41.8594 45.5886 41.9427 45.7969 41.9427 46.0417Z" fill="black"/>
</svg>
